<svg version="1" xmlns="http://www.w3.org/2000/svg" width="933.333" height="933.333" viewBox="0 0 700.000000 700.000000"><path d="M338.5 94.4c-.2.6-.3 8.5-.2 17.6l.2 16.4 10.8.1c6 0 11.2-.2 11.6-.5.4-.3.7-8.2.7-17.5l-.1-17-11.3-.1c-7.7-.1-11.5.2-11.7 1zM336.9 140.4c-.2.2-3.5.6-7.3 1-26.2 2.5-58.3 15.8-80.6 33.4-5.9 4.7-22.6 21.5-27.1 27.2-8.9 11.3-17.6 26.2-22.9 39-3.4 8.2-8.5 25.3-9.4 31.4-.4 2.1-.8 4.8-1.1 6-1.4 6.3-2.2 36-1.1 41.1.2 1.1.7 4.2 1 7 4.2 31.3 20.6 65.5 42.2 88.1 15.2 16 24.7 31 30.8 48.5 4.7 13.9 6.5 25.1 7 45.5.3 8.7.8 11.9 2.4 15 3 5.9 8.4 10.2 15.1 12l5.9 1.7-.2 6.1c-.1 3.3.4 9.8 1.1 14.3 3.7 23.8 23.9 44.4 47 48 19.8 3.1 37.3-2.6 51.3-16.7 12.7-12.7 17.6-25.8 17.3-46.2 0-3.2.2-5.8.6-5.9 7.2-.9 12.3-3.3 16.3-7.6 4.8-5 6.1-9.7 6.4-22.8 1-36.4 11.6-62.3 37.9-92 3.3-3.8 6.5-7.3 7.1-7.9 3.4-3.6 15-21.7 19.3-30.2 7.1-14.2 13.2-32.5 14.7-43.7.3-2.3 1-6.2 1.5-8.7 1.6-8.1.3-42.4-2-52.5-6.7-30.5-17.8-53.1-36.7-75-25.9-29.9-63.6-50.2-102.4-55.2-4.5-.6-33.6-1.3-34.1-.9zm31.6 24.1c48.7 6.6 91.7 39.6 110.3 84.5 16.6 40 14.5 83.1-5.9 121-5.2 9.6-11.5 18.5-20.4 28.5-15.4 17.5-20.9 25.4-29 42-9.8 20.3-14.4 38.6-15.1 61-.1 5.5-.3 10.4-.3 11-.1 1-114.8 1.1-115.8.1-.3-.2-.6-5.8-.8-12.4-.9-27.8-8.4-52.7-22.8-75.2-5.5-8.6-10.3-14.7-19.5-24.8-4.3-4.6-10.3-12-13.5-16.5-5.9-8.2-16.7-28.8-16.7-31.7 0-.9-.4-2-.8-2.6-1.4-1.5-5.2-16.3-6.6-25.9-1.4-8.9-1.4-34.3-.1-41.5 4-22.5 11.5-40.8 23.8-59 7-10.3 25.3-28.3 35.7-35.2 20-13.3 42.1-21.4 63-23.3 4.1-.4 7.6-.8 7.8-1 .5-.5 21.5.3 26.7 1zm14.8 372.4c1.6.1 1.8 1 1.6 8.8-.2 10.3-1.2 14.1-5.4 20.8-5.9 9.4-14.4 14.9-25.3 16.3-16.6 2.3-32.6-8.3-37.8-24.9-.6-2-1.2-7.5-1.3-12.2-.2-7.4 0-8.6 1.5-8.9 1.5-.2 60.8-.2 66.7.1z"/><path d="M325.5 239.9c-32.5 9-45.5 46.6-25.4 73.3 3.5 4.7 10.4 10.5 15.6 13.1 8.2 4.2 12.5 5 29.3 5.2 9.1.1 18.3.5 20.5.9 5.6 1 11.4 5.3 14.9 11 2.5 4 3 5.8 3 11.4 0 7.8-1.7 11.5-7.4 17.1-5.5 5.3-10.1 6.4-28.2 6.4-17.1 0-20.7-.9-26.7-6.6-3.6-3.5-7.1-10.4-7.1-14.3V355h-23.9l.5 4.2c1.9 16.3 11.4 30.2 25.6 37.1 9.6 4.7 14 5.4 34.8 5.2 15.1-.2 18.4-.5 23.8-2.4 19.5-6.7 31.5-23.1 32.1-43.6.4-13.3-6.6-28.2-17-36.5-11.2-8.9-16.1-10.2-38.7-10.6-10.4-.2-19.9-.8-21.9-1.5-2-.6-5.3-2.7-7.5-4.7-9.8-8.8-10.5-23.1-1.6-32.8 6-6.5 10.2-7.7 27.6-7.7 8.1-.1 16.3.2 18.3.6 7.5 1.5 16.5 11 17.3 18.4.2 1.5.4 3.1.5 3.5 0 .5 5.3.8 11.6.8H407v-2.8c0-4.5-2.8-14.1-5.7-19.4-5.6-10.2-14.6-17.9-25.8-22-5.3-1.9-8.3-2.2-25-2.3-15.1-.2-20.2.1-25 1.4zM201.8 154.6c-4.3 4.2-7.8 7.9-7.8 8.4 0 .4 5.4 6.2 12 12.7l12 12 8.3-8.3 8.3-8.2-12-12.1c-6.7-6.7-12.3-12.1-12.6-12.1-.3 0-4 3.4-8.2 7.6zM477.7 158.9c-6.4 6.5-11.7 12-11.7 12.3 0 .3 3.6 4.1 7.9 8.6l7.9 8 12.1-12c6.7-6.7 12-12.5 11.9-13-.4-1.1-15-15.8-15.8-15.8-.3 0-5.8 5.3-12.3 11.9zM140.4 291.9c-.2.2-.4 5.5-.4 11.8V315h35.1l-.3-11.7-.3-11.7h-16.8c-9.3-.1-17.1.1-17.3.3zM525.4 291.9c-.2.2-.4 5.5-.4 11.8V315h35.1l-.3-11.7-.3-11.7-16.8-.1c-9.3 0-17.1.2-17.3.4zM205.8 430.8c-6.5 6.5-11.8 12.2-11.8 12.8 0 .5 3.5 4.4 7.8 8.7l7.8 7.8 9.5-9.5c5.2-5.2 10.7-10.8 12.4-12.5l2.9-3.1-7.9-8c-4.4-4.4-8.2-8-8.5-8-.3.1-5.8 5.4-12.2 11.8zM473.8 426.8c-4.3 4.3-7.8 8.1-7.8 8.4 0 .3 5.5 6 12.2 12.7l12.2 12.2 7.8-7.8c4.3-4.3 7.8-8.2 7.8-8.8 0-1-23.2-24.5-24.1-24.5-.2 0-3.9 3.5-8.1 7.8z"/></svg>